<svg id="Capa_1" data-name="Capa 1" xmlns="http://www.w3.org/2000/svg" viewBox="0 0 32 32"><defs><style>.cls-1{fill:#cdb874;}</style></defs><title>calendar-cuervo</title><path class="cls-1" d="M10.52,16H6.87V12.35h3.65Zm7.31-3.65H14.17V16h3.66Zm7.3,0H21.48V16h3.65ZM10.52,17.83H6.87v3.65h3.65Zm7.31,0H14.17v3.65h3.66Zm7.3,0H21.48v3.65h3.65ZM10.52,23.31H6.87V27h3.65Zm7.31,0H14.17V27h3.66ZM8.69,6.87A1.83,1.83,0,0,0,10.52,5V3.21a1.83,1.83,0,1,0-3.65,0V5A1.82,1.82,0,0,0,8.69,6.87ZM30.62,5V30.62H1.38V5H6a2.74,2.74,0,0,0,5.48,0h9.14a2.74,2.74,0,0,0,5.48,0Zm-1.83,5.48H3.21V28.79H28.79ZM23.31,6.87A1.82,1.82,0,0,0,25.13,5V3.21a1.83,1.83,0,1,0-3.65,0V5A1.83,1.83,0,0,0,23.31,6.87Z"/></svg>